<svg width="30" height="30" viewBox="0 0 30 30" fill="none" xmlns="http://www.w3.org/2000/svg">
<path fill-rule="evenodd" clip-rule="evenodd" d="M15.2813 0.00526406C15.0938 -0.00175469 14.9062 -0.00175469 14.7187 0.00526406C13.4811 0.0515973 12.3666 0.481074 11.1447 1.196C9.95391 1.8927 8.58301 2.90915 6.84358 4.19884L6.74903 4.26895C5.00958 5.55862 3.63865 6.57507 2.62139 7.5155C1.57752 8.48052 0.832891 9.42944 0.407261 10.6163C0.342785 10.7961 0.284792 10.9782 0.233398 11.1624C-0.105871 12.3779 -0.0500035 13.5922 0.238673 14.9991C0.519992 16.3701 1.04364 18.0147 1.70805 20.1015L4.02291 27.372C4.52185 28.939 5.95282 30 7.56742 30C9.62574 30 11.2943 28.2972 11.2943 26.1967V22.4529C11.2943 21.5754 11.9914 20.864 12.8513 20.864H17.1487C18.0086 20.864 18.7057 21.5754 18.7057 22.4529V26.1967C18.7057 28.2972 20.3743 30 22.4326 30C24.0472 30 25.4782 28.939 25.9771 27.372L28.292 20.1014C28.9564 18.0147 29.48 16.3701 29.7613 14.9991C30.05 13.5922 30.1059 12.3779 29.7666 11.1624C29.7152 10.9783 29.6572 10.7961 29.5927 10.6163C29.1671 9.42944 28.4225 8.48052 27.3786 7.5155C26.3613 6.57507 24.9904 5.55862 23.251 4.26893L23.1564 4.19882C21.417 2.90914 20.0461 1.89269 18.8553 1.196C17.6334 0.481074 16.519 0.0515973 15.2813 0.00526406ZM14.7921 2.04676C14.9306 2.04157 15.0694 2.04157 15.2079 2.04676C16.0026 2.07651 16.794 2.34477 17.8597 2.96825C18.9457 3.60366 20.23 4.55418 22.0271 5.88662C23.8242 7.21906 25.1069 8.17182 26.0346 9.02951C26.945 9.8711 27.4396 10.5563 27.7129 11.3184C27.7605 11.4513 27.8034 11.5859 27.8414 11.722C28.0592 12.5024 28.0538 13.3535 27.802 14.5804C27.5454 15.8308 27.0565 17.371 26.37 19.5269L24.0732 26.7407C23.8423 27.466 23.1799 27.9571 22.4326 27.9571C21.4798 27.9571 20.7075 27.1689 20.7075 26.1967V22.4529C20.7075 20.4471 19.1142 18.8212 17.1487 18.8212H12.8513C10.8858 18.8212 9.29252 20.4471 9.29252 22.4529V26.1967C9.29252 27.1689 8.52017 27.9571 7.56742 27.9571C6.82007 27.9571 6.15771 27.466 5.92676 26.7407L3.62997 19.5269C2.94354 17.371 2.45457 15.8308 2.198 14.5804C1.94625 13.3535 1.94081 12.5024 2.15864 11.722C2.19663 11.5859 2.23949 11.4513 2.28715 11.3184C2.56043 10.5563 3.05501 9.8711 3.96536 9.0295C4.89313 8.17182 6.17584 7.21906 7.97293 5.88662C9.77003 4.55418 11.0543 3.60366 12.1403 2.96825C13.206 2.34477 13.9974 2.07651 14.7921 2.04676Z" fill="#D047FF"/>
</svg>
