<svg width="30" height="30" viewBox="0 0 30 30" fill="none" xmlns="http://www.w3.org/2000/svg">
<path d="M6.84012 4.33395C10.6536 1.50235 12.5603 0.0865534 14.7379 0.00491193C14.9126 -0.00163731 15.0874 -0.00163731 15.2621 0.00491193C17.4397 0.0865534 19.3464 1.50235 23.1599 4.33395C26.9733 7.16555 28.8801 8.58135 29.6289 10.6727C29.689 10.8404 29.7431 11.0104 29.7909 11.1822C30.3879 13.324 29.6596 15.6148 28.203 20.1964L25.7419 27.9373C25.3509 29.1672 24.2294 30 22.964 30C21.3508 30 20.0431 28.6635 20.0431 27.0148V22.9975C20.0431 21.4505 18.816 20.1964 17.3024 20.1964H12.6976C11.184 20.1964 9.95692 21.4505 9.95692 22.9975V27.0148C9.95692 28.6635 8.64918 30 7.036 30C5.77059 30 4.64909 29.1673 4.25805 27.9373L1.79704 20.1964C0.34043 15.6148 -0.387876 13.324 0.209057 11.1822C0.256943 11.0104 0.310978 10.8404 0.371053 10.6727C1.11993 8.58135 3.02666 7.16555 6.84012 4.33395Z" fill="#D047FF"/>
</svg>
