<svg width="30" height="30" viewBox="0 0 30 30" fill="none" xmlns="http://www.w3.org/2000/svg">
<path d="M19.1729 4.54854C16.3641 3.02917 14.1824 1.84898 12.4105 1.08335C10.632 0.314859 9.08813 -0.11913 7.58696 0.0286992C5.20445 0.263318 3.03551 1.4345 1.62206 3.25725C0.729269 4.40858 0.357539 5.88629 0.178404 7.71573C-1.44863e-05 9.53785 -8.1006e-06 11.8995 1.15197e-07 14.9367V15.0633C-8.29391e-06 18.1005 -1.48367e-05 20.4621 0.178403 22.2843C0.357538 24.1137 0.729268 25.5914 1.62206 26.7428C3.03551 28.5655 5.20445 29.7367 7.58696 29.9713C9.08813 30.1191 10.632 29.6851 12.4105 28.9166C14.1824 28.151 16.3641 26.9708 19.1728 25.4515L19.2868 25.3898C22.0954 23.8706 24.2772 22.6904 25.871 21.6353C27.4694 20.5773 28.6476 19.5389 29.2653 18.2388C30.2449 16.1775 30.2449 13.8225 29.2653 11.7611C28.6476 10.4611 27.4694 9.42274 25.871 8.36469C24.2772 7.30964 22.0954 6.12942 19.2868 4.61017L19.1729 4.54854Z" fill="#FAFAFA"/>
</svg>
