<svg width="46" height="46" viewBox="0 0 46 46" fill="none" xmlns="http://www.w3.org/2000/svg">
<rect width="46" height="46" rx="10" fill="black" fill-opacity="0.03"/>
<path d="M11.2046 23.0461C11.2046 22.6319 10.8688 22.2961 10.4546 22.2961C10.0403 22.2961 9.70456 22.6319 9.70456 23.0461H11.2046ZM34.7955 23.0461C34.7955 23.4603 35.1313 23.7961 35.5455 23.7961C35.9597 23.7961 36.2955 23.4603 36.2955 23.0461H34.7955ZM13.466 15.6056L13.9816 16.1503L13.9977 16.135L14.0129 16.1188L13.466 15.6056ZM32.534 30.4865L33.081 30.9997L33.0909 30.9891L33.1003 30.9782L32.534 30.4865ZM12.7887 10.4583C12.7907 10.044 12.4565 9.70662 12.0423 9.7046C11.6281 9.70257 11.2907 10.0367 11.2887 10.4509L12.7887 10.4583ZM12.0276 12.7276L11.2776 12.7239L12.0276 12.7276ZM16.6443 16.94L16.6473 17.69H16.6473L16.6443 16.94ZM19.1385 17.6799C19.5527 17.6782 19.8871 17.341 19.8854 16.9268C19.8838 16.5126 19.5466 16.1782 19.1324 16.1799L19.1385 17.6799ZM12.5401 16.0666L11.9681 16.5517L11.9681 16.5517L12.5401 16.0666ZM12.9848 16.4724L12.5522 17.085L12.5522 17.085L12.9848 16.4724ZM33.1104 35.5418C33.1084 35.956 33.4426 36.2935 33.8568 36.2955C34.271 36.2975 34.6084 35.9634 34.6104 35.5492L33.1104 35.5418ZM33.8716 33.2725L34.6215 33.2762L33.8716 33.2725ZM29.2548 29.0601L29.2518 28.3101H29.2518L29.2548 29.0601ZM26.7606 28.3202C26.3464 28.3219 26.012 28.6591 26.0137 29.0733C26.0153 29.4875 26.3525 29.8219 26.7667 29.8202L26.7606 28.3202ZM33.359 29.9335L33.931 29.4484H33.931L33.359 29.9335ZM32.9143 29.5277L33.3469 28.9151H33.3469L32.9143 29.5277ZM12.7498 16.2836L12.2447 16.8381L12.7498 16.2836ZM23 33.7429C16.4194 33.7429 11.2046 28.8905 11.2046 23.0461H9.70456C9.70456 29.8454 15.7233 35.2429 23 35.2429V33.7429ZM23 12.3493C29.5806 12.3493 34.7955 17.2016 34.7955 23.0461H36.2955C36.2955 16.2468 30.2767 10.8493 23 10.8493V12.3493ZM14.0129 16.1188C16.1698 13.8201 19.3884 12.3493 23 12.3493V10.8493C18.9807 10.8493 15.3641 12.4866 12.919 15.0925L14.0129 16.1188ZM31.9871 29.9733C29.8302 32.272 26.6116 33.7429 23 33.7429V35.2429C27.0193 35.2429 30.636 33.6055 33.081 30.9997L31.9871 29.9733ZM11.2887 10.4509L11.2776 12.7239L12.7775 12.7313L12.7887 10.4583L11.2887 10.4509ZM16.6473 17.69L19.1385 17.6799L19.1324 16.1799L16.6412 16.19L16.6473 17.69ZM11.2776 12.7239C11.2732 13.611 11.2683 14.3457 11.3386 14.9335C11.4114 15.5414 11.5734 16.0863 11.9681 16.5517L13.1121 15.5814C12.981 15.4269 12.8823 15.2086 12.828 14.7552C12.7713 14.2817 12.773 13.6569 12.7775 12.7313L11.2776 12.7239ZM16.6412 16.19C15.6318 16.1941 14.9326 16.196 14.3987 16.1428C13.8758 16.0907 13.6056 15.9926 13.4174 15.8597L12.5522 17.085C13.0435 17.4319 13.6097 17.5716 14.25 17.6354C14.8793 17.6982 15.6701 17.694 16.6473 17.69L16.6412 16.19ZM34.6104 35.5492L34.6215 33.2762L33.1216 33.2688L33.1104 35.5418L34.6104 35.5492ZM29.2518 28.3101L26.7606 28.3202L26.7667 29.8202L29.2579 29.8101L29.2518 28.3101ZM34.6215 33.2762C34.6259 32.3891 34.6308 31.6544 34.5605 31.0666C34.4877 30.4587 34.3257 29.9138 33.931 29.4484L32.787 30.4186C32.9181 30.5732 33.0168 30.7915 33.0711 31.2449C33.1278 31.7184 33.1261 32.3432 33.1216 33.2688L34.6215 33.2762ZM29.2579 29.8101C30.2673 29.806 30.9665 29.8041 31.5004 29.8573C32.0233 29.9094 32.2935 30.0075 32.4817 30.1404L33.3469 28.9151C32.8556 28.5682 32.2894 28.4284 31.6491 28.3646C31.0198 28.3019 30.229 28.3061 29.2518 28.3101L29.2579 29.8101ZM11.9681 16.5517C12.054 16.653 12.1464 16.7486 12.2447 16.8381L13.2548 15.7292C13.2035 15.6824 13.1558 15.6331 13.1121 15.5814L11.9681 16.5517ZM12.2447 16.8381C12.3417 16.9265 12.4444 17.0089 12.5522 17.085L13.4174 15.8597C13.3598 15.819 13.3055 15.7754 13.2548 15.7292L12.2447 16.8381ZM12.9504 15.061L12.2342 15.739L13.2654 16.8283L13.9816 16.1503L12.9504 15.061ZM33.931 29.4484C33.8565 29.3606 33.7771 29.277 33.6933 29.198L32.6645 30.2897C32.7082 30.3308 32.7491 30.3739 32.787 30.4186L33.931 29.4484ZM33.6933 29.198C33.585 29.0959 33.4692 29.0014 33.3469 28.9151L32.4817 30.1404C32.5471 30.1866 32.6081 30.2365 32.6645 30.2897L33.6933 29.198ZM33.1003 30.9782L33.7452 30.2356L32.6126 29.2521L31.9678 29.9947L33.1003 30.9782Z" fill="#D047FF"/>
</svg>
