<svg width="32" height="32" viewBox="0 0 32 32" fill="none" xmlns="http://www.w3.org/2000/svg">
<path d="M6.48189 6.63606L6.31638 7.36757L6.48189 6.63606ZM11.7751 3.87754L11.06 3.65145L11.7751 3.87754ZM2.25697 13.2415L2.76843 12.6929L2.25697 13.2415ZM2.25697 18.7585L1.74552 18.21H1.74552L2.25697 18.7585ZM6.4819 25.3639L6.64741 26.0954L6.4819 25.3639ZM11.7751 28.1225L11.06 28.3486L11.7751 28.1225ZM20.2249 28.1225L20.94 28.3486L20.2249 28.1225ZM25.5181 25.3639L25.6836 24.6324L25.5181 25.3639ZM29.743 18.7585L29.2316 19.3071L29.743 18.7585ZM29.743 13.2415L29.2316 12.6929V12.6929L29.743 13.2415ZM25.5181 6.63606L25.3526 5.90455L25.5181 6.63606ZM20.2249 3.87754L20.94 3.65144L20.2249 3.87754ZM6.31638 7.36757C8.94166 7.96157 11.7057 6.58495 12.4902 4.10363L11.06 3.65145C10.5431 5.28638 8.62207 6.35134 6.64741 5.90455L6.31638 7.36757ZM2.76843 12.6929C1.52027 11.5292 1.51247 10.0423 2.24047 8.90412C2.97888 7.74966 4.48812 6.95391 6.31638 7.36757L6.64741 5.90455C4.18812 5.34811 2.04764 6.42176 0.976846 8.09588C-0.104355 9.78628 -0.0808394 12.0872 1.74552 13.79L2.76843 12.6929ZM2.76843 19.3071C4.73575 17.4728 4.73575 14.5272 2.76843 12.6929L1.74552 13.79C3.07672 15.0312 3.07672 16.9688 1.74552 18.21L2.76843 19.3071ZM6.31638 24.6324C4.48812 25.0461 2.97888 24.2503 2.24047 23.0959C1.51247 21.9577 1.52027 20.4708 2.76843 19.3071L1.74552 18.21C-0.0808402 19.9128 -0.104356 22.2137 0.976846 23.9041C2.04764 25.5782 4.18812 26.6519 6.64741 26.0954L6.31638 24.6324ZM12.4902 27.8964C11.7057 25.415 8.94166 24.0384 6.31638 24.6324L6.64741 26.0954C8.62207 25.6487 10.5431 26.7136 11.06 28.3486L12.4902 27.8964ZM19.5098 27.8964C19.0254 29.4285 17.5674 30.25 16 30.25C14.4326 30.25 12.9746 29.4285 12.4902 27.8964L11.06 28.3486C11.7886 30.6532 13.949 31.75 16 31.75C18.051 31.75 20.2114 30.6532 20.94 28.3486L19.5098 27.8964ZM25.6836 24.6324C23.0583 24.0384 20.2943 25.415 19.5098 27.8964L20.94 28.3486C21.4569 26.7136 23.3779 25.6487 25.3526 26.0954L25.6836 24.6324ZM29.2316 19.3071C30.4797 20.4708 30.4875 21.9577 29.7595 23.0959C29.0211 24.2503 27.5119 25.0461 25.6836 24.6324L25.3526 26.0954C27.8119 26.6519 29.9524 25.5782 31.0232 23.9041C32.1044 22.2137 32.0808 19.9128 30.2545 18.21L29.2316 19.3071ZM29.2316 12.6929C27.2643 14.5272 27.2643 17.4728 29.2316 19.3071L30.2545 18.21C28.9233 16.9688 28.9233 15.0312 30.2545 13.79L29.2316 12.6929ZM25.6836 7.36757C27.5119 6.95391 29.0211 7.74966 29.7595 8.90412C30.4875 10.0423 30.4797 11.5292 29.2316 12.6929L30.2545 13.79C32.0808 12.0872 32.1044 9.78628 31.0232 8.09588C29.9524 6.42176 27.8119 5.34811 25.3526 5.90455L25.6836 7.36757ZM19.5098 4.10363C20.2943 6.58495 23.0583 7.96157 25.6836 7.36757L25.3526 5.90455C23.3779 6.35134 21.4569 5.28638 20.94 3.65144L19.5098 4.10363ZM20.94 3.65144C20.2114 1.34682 18.051 0.25 16 0.25C13.949 0.25 11.7886 1.34682 11.06 3.65145L12.4902 4.10363C12.9746 2.57154 14.4326 1.75 16 1.75C17.5674 1.75 19.0254 2.57154 19.5098 4.10363L20.94 3.65144ZM10.5443 16C10.5443 18.8305 13.061 20.9976 16 20.9976V19.4976C13.7412 19.4976 12.0443 17.8612 12.0443 16H10.5443ZM16 20.9976C18.939 20.9976 21.4557 18.8305 21.4557 16H19.9557C19.9557 17.8612 18.2588 19.4976 16 19.4976V20.9976ZM21.4557 16C21.4557 13.1695 18.939 11.0024 16 11.0024V12.5024C18.2588 12.5024 19.9557 14.1387 19.9557 16H21.4557ZM16 11.0024C13.061 11.0024 10.5443 13.1695 10.5443 16H12.0443C12.0443 14.1387 13.7412 12.5024 16 12.5024V11.0024Z" fill="#D047FF"/>
</svg>
