<svg width="30" height="30" viewBox="0 0 30 30" fill="none" xmlns="http://www.w3.org/2000/svg">
<path d="M11.7286 15C11.7286 13.3569 13.1933 12.0249 15.0001 12.0249C16.8069 12.0249 18.2716 13.3569 18.2716 15C18.2716 16.6431 16.8069 17.9751 15.0001 17.9751C13.1933 17.9751 11.7286 16.6431 11.7286 15Z" fill="#D047FF"/>
<path fill-rule="evenodd" clip-rule="evenodd" d="M10.035 3.40684C11.4605 -1.13561 18.5395 -1.13561 19.965 3.40684C20.4067 4.81425 21.9967 5.64907 23.5578 5.29321C28.5964 4.14466 32.1359 9.71973 28.5228 13.1136C27.4034 14.1652 27.4034 15.8348 28.5228 16.8864C32.1359 20.2803 28.5964 25.8553 23.5578 24.7068C21.9967 24.3509 20.4067 25.1857 19.965 26.5932C18.5395 31.1356 11.4605 31.1356 10.035 26.5932C9.59332 25.1857 8.0033 24.3509 6.44216 24.7068C1.40356 25.8553 -2.13592 20.2803 1.47716 16.8864C2.59662 15.8348 2.59662 14.1652 1.47716 13.1136C-2.13592 9.71973 1.40356 4.14466 6.44216 5.29321C8.0033 5.64907 9.59332 4.81425 10.035 3.40684ZM15.0001 10.0415C11.9887 10.0415 9.54757 12.2615 9.54757 15C9.54757 17.7385 11.9887 19.9585 15.0001 19.9585C18.0114 19.9585 20.4526 17.7385 20.4526 15C20.4526 12.2615 18.0114 10.0415 15.0001 10.0415Z" fill="#D047FF"/>
</svg>
