<svg width="35" height="25" viewBox="0 0 35 25" fill="none" xmlns="http://www.w3.org/2000/svg">
<path d="M34.6523 2.60321C35.1826 1.92983 35.0966 0.929048 34.4602 0.3679C33.8238 -0.193248 32.8779 -0.102268 32.3476 0.57111L21.5663 14.2601C19.4006 17.0099 17.8771 18.9382 16.5557 20.2008C15.2652 21.4339 14.3745 21.8258 13.5 21.8258C12.6255 21.8258 11.7348 21.4339 10.4442 20.2008C9.12281 18.9382 7.59934 17.0099 5.43367 14.2601L2.65233 10.7287C2.12199 10.0553 1.17614 9.96431 0.539729 10.5255C-0.0966846 11.0866 -0.182671 12.0874 0.347674 12.7608L3.20621 16.3902C5.27674 19.0193 6.93491 21.1247 8.43362 22.5566C9.98174 24.0358 11.5643 25 13.5 25C15.4357 25 17.0182 24.0358 18.5663 22.5566C20.065 21.1247 21.7232 19.0193 23.7937 16.3903L34.6523 2.60321Z" fill="#FAFAFA"/>
</svg>
